<svg width="24" height="24" viewBox="0 0 24 24" fill="none" xmlns="http://www.w3.org/2000/svg">
<path fill-rule="evenodd" clip-rule="evenodd" d="M19.7306 10.0472L19.7044 9.94997C19.517 9.25411 19.2497 8.61183 18.8994 7.99206L18.8869 7.96994L18.8756 7.94721C18.7033 7.60271 18.5885 6.93733 19.0929 6.43289L20.5187 5.00707L18.987 3.45717L17.5671 4.87711C17.1889 5.25528 16.5779 5.38696 16.0528 5.12443L16.0301 5.11306L16.0079 5.10056C15.3898 4.7512 14.7493 4.4844 14.0556 4.29713C13.4301 4.13463 13.1 3.56141 13.1 3.03V1H10.9V3.03C10.9 3.70535 10.4413 4.0724 10.1372 4.22443L10.0472 4.26945L9.94997 4.29562C9.25411 4.48296 8.61183 4.75026 7.99206 5.10056L7.96994 5.11306L7.94721 5.12443C7.60271 5.29668 6.93733 5.41154 6.43289 4.90711L5.00707 3.48128L3.45717 5.01295L4.87711 6.43289C5.25528 6.81107 5.38696 7.42214 5.12443 7.94721L5.11306 7.96994L5.10056 7.99206C4.7512 8.61016 4.4844 9.25065 4.29713 9.94436C4.13463 10.5699 3.56142 10.9 3.03 10.9H1V13.1H3.03C3.70535 13.1 4.0724 13.5587 4.22443 13.8628L4.26945 13.9528L4.29562 14.05C4.48296 14.7459 4.75026 15.3882 5.10056 16.0079L5.11306 16.0301L5.12443 16.0528C5.29668 16.3973 5.41154 17.0627 4.90711 17.5671L3.48421 18.99L5.04 20.5458L6.46289 19.1229C6.84107 18.7447 7.45214 18.613 7.97721 18.8756L7.99994 18.8869L8.02206 18.8994C8.64035 19.2489 9.28103 19.5158 9.97498 19.703C10.3974 19.8134 10.6363 20.1165 10.7494 20.3428C10.863 20.5699 10.9 20.8048 10.9 21V23H13.1V21C13.1 20.3004 13.6201 19.9119 13.8928 19.7756L13.9828 19.7306L14.08 19.7044C14.7759 19.517 15.4182 19.2497 16.0379 18.8994L16.0601 18.8869L16.0828 18.8756C16.4273 18.7033 17.0927 18.5885 17.5971 19.0929L19.02 20.5158L20.5758 18.96L19.1529 17.5371C18.7747 17.1589 18.643 16.5479 18.9056 16.0228L18.9169 16.0001L18.9294 15.9779C19.2839 15.3508 19.5481 14.74 19.7329 14.0555C19.8954 13.43 20.4686 13.1 21 13.1H23V10.9H20.97C20.2947 10.9 19.9276 10.4413 19.7756 10.1372L19.7306 10.0472ZM20.7 14.31C20.49 15.09 20.19 15.78 19.8 16.47C19.74 16.59 19.77 16.74 19.86 16.83L21.78 18.75C21.9 18.87 21.9 19.05 21.78 19.17L19.23 21.72C19.11 21.84 18.93 21.84 18.81 21.72L16.89 19.8C16.8 19.71 16.65 19.71 16.53 19.77C15.84 20.16 15.12 20.46 14.34 20.67C14.22 20.73 14.1 20.85 14.1 21V23.7C14.1 23.88 14.01 24 13.83 24H10.23C10.05 24 9.9 23.88 9.9 23.7V21C9.9 20.85 9.84 20.7 9.72 20.67C8.94 20.46 8.22 20.16 7.53 19.77C7.41 19.71 7.26 19.74 7.17 19.83L5.25 21.75C5.13 21.87 4.95 21.87 4.83 21.75L2.28 19.2C2.16 19.08 2.16 18.9 2.28 18.78L4.2 16.86C4.29 16.77 4.29 16.62 4.23 16.5C3.84 15.81 3.54 15.09 3.33 14.31C3.27 14.19 3.18 14.1 3.03 14.1H0.3C0.12 14.1 0 13.98 0 13.8V10.2C0 10.02 0.12 9.9 0.3 9.9H3.03C3.18 9.9 3.3 9.81 3.33 9.69C3.54 8.91 3.84 8.19 4.23 7.5C4.29 7.38 4.26 7.23 4.17 7.14L2.25 5.22C2.13 5.1 2.13 4.92 2.25 4.8L4.8 2.28C4.92 2.16 5.1 2.16 5.22 2.28L7.14 4.2C7.23 4.29 7.38 4.29 7.5 4.23C8.19 3.84 8.91 3.54 9.69 3.33C9.81 3.27 9.9 3.18 9.9 3.03V0.3C9.9 0.12 10.02 0 10.2 0H13.8C13.98 0 14.1 0.12 14.1 0.3V3.03C14.1 3.18 14.19 3.3 14.31 3.33C15.09 3.54 15.81 3.84 16.5 4.23C16.62 4.29 16.77 4.26 16.86 4.17L18.78 2.25C18.9 2.13 19.08 2.13 19.2 2.25L21.72 4.8C21.84 4.92 21.84 5.1 21.72 5.22L19.8 7.14C19.71 7.23 19.71 7.38 19.77 7.5C20.16 8.19 20.46 8.91 20.67 9.69C20.73 9.81 20.82 9.9 20.97 9.9H23.7C23.88 9.9 24 10.02 24 10.2V13.8C24 13.98 23.88 14.13 23.73 14.1H21C20.85 14.1 20.73 14.19 20.7 14.31ZM12 18.4C8.47772 18.4 5.6 15.5223 5.6 12C5.6 8.47772 8.47772 5.6 12 5.6C15.5223 5.6 18.4 8.47772 18.4 12C18.4 15.5223 15.5223 18.4 12 18.4ZM6.6 12C6.6 14.97 9.03 17.4 12 17.4C14.97 17.4 17.4 14.97 17.4 12C17.4 9.03 14.97 6.6 12 6.6C9.03 6.6 6.6 9.03 6.6 12Z" fill="#0089FF"/>
</svg>
